<svg xmlns="http://www.w3.org/2000/svg" version="1.1" xmlns:xlink="http://www.w3.org/1999/xlink" xmlns:svgjs="http://svgjs.dev/svgjs" width="1500" height="1500" viewBox="0 0 1500 1500"><rect width="1500" height="1500" fill="#f9f9f9"></rect><g transform="matrix(0.6666666666666666,0,0,0.6666666666666666,249.3939393939395,632.184351040143)"><svg viewBox="0 0 396 93" data-background-color="#f9f9f9" preserveAspectRatio="xMidYMid meet" height="352" width="1500" xmlns="http://www.w3.org/2000/svg" xmlns:xlink="http://www.w3.org/1999/xlink"><g id="tight-bounds" transform="matrix(1,0,0,1,0.23999999999995225,0.19114497130692598)"><svg viewBox="0 0 395.52 92.61771005738615" height="92.61771005738615" width="395.52"><g><svg viewBox="0 0 715.2993626057254 167.4994664493583" height="92.61771005738615" width="395.52"><g><rect width="12.083516790674686" height="134.6617365681517" x="276.06360290752536" y="16.4188649406033" fill="#030303" opacity="1" stroke-width="0" stroke="transparent" fill-opacity="1" class="rect-qz-0" data-fill-palette-color="primary" rx="1%" id="qz-0" data-palette-color="#030303"></rect></g><g transform="matrix(1,0,0,1,319.77936260572545,16.753844384802676)"><svg viewBox="0 0 395.52 133.99177767975294" height="133.99177767975294" width="395.52"><g id="textblocktransform"><svg viewBox="0 0 395.52 133.99177767975294" height="133.99177767975294" width="395.52" id="textblock"><g><svg viewBox="0 0 395.52 133.99177767975294" height="133.99177767975294" width="395.52"><g transform="matrix(1,0,0,1,0,0)"><svg width="395.52" viewBox="1.7 -38.1 113.34 38.400000000000006" height="133.99177767975294" data-palette-color="#030303"><g class="wordmark-text-0" data-fill-palette-color="primary" id="text-0"><path d="M30.4 0.1L30.4 0.1Q27.6 0.1 26.18-1.73 24.75-3.55 24.25-8.55L24.25-8.55Q23.95-11.15 23.65-15.3L23.65-15.3Q20.15-14.25 16.6-13.1L16.6-13.1 14.9-8.4Q14.4-7.05 14.2-6.48 14-5.9 13.48-4.75 12.95-3.6 12.58-3.08 12.2-2.55 11.53-1.75 10.85-0.95 10.15-0.6L10.15-0.6Q8.35 0.3 6.3 0.3 4.25 0.3 2.98-1.18 1.7-2.65 1.7-4.8L1.7-4.8Q1.7-5.4 1.8-6.05L1.8-6.05Q2.45-10.85 11.65-14.8L11.65-14.8Q14.25-21.45 20.3-37.2L20.3-37.2Q21.9-38.1 24.35-38.1L24.35-38.1Q24.9-38.1 25.4-38.1 25.9-38.1 26.63-38.1 27.35-38.1 28.45-37.8L28.45-37.8Q28.5-35.45 30.75-8.65L30.75-8.65Q30.95-6.4 31.3-5.73 31.65-5.05 32.5-5.05L32.5-5.05Q33.9-5.05 36.23-6.95 38.55-8.85 40.4-11.7L40.4-11.7 41.8-8.3 40.6-6.7Q35.35 0.1 30.4 0.1ZM23.3-19L22.45-29.4 18.1-17.25Q21.6-18.45 23.3-19L23.3-19ZM9.9-10.45Q5.25-8.1 5.25-5.85L5.25-5.85Q5.25-4.25 6.45-4.25L6.45-4.25Q7.35-4.25 7.9-5.55L7.9-5.55Q8.55-6.95 9.9-10.45L9.9-10.45ZM51-5.7L51-5.7 52.2-16.75Q52.2-18.1 51.5-19 50.8-19.9 49.25-19.9 47.7-19.9 46.62-18.68 45.55-17.45 45.05-15.45L45.05-15.45Q44.7-12.6 44-7.13 43.3-1.65 43.1 0L43.1 0 36.45 0Q40.05-30.65 40.8-37.65L40.8-37.65Q41.85-38.05 43.65-38.05L43.65-38.05Q47.55-38.05 47.55-35.75L47.55-35.75 47.55-35.45Q46.7-27.6 45.75-21.65L45.75-21.65Q48.4-24.05 51.75-24.05 55.1-24.05 57.05-22.35 59-20.65 59-18.05L59-18.05Q59-17.35 58.7-15.45L58.7-15.45Q57.55-7.95 57.55-6.65L57.55-6.65Q57.55-4.3 59.1-4.3L59.1-4.3Q60.4-4.3 61.87-6.03 63.35-7.75 64.25-11.35L64.25-11.35Q65.95-9.55 66.3-8.5L66.3-8.5Q63.7 0.2 57.1 0.2L57.1 0.2Q54 0.2 52.5-1.7 51-3.6 51-5.7ZM71.5-11.2Q74.6-11.85 76.12-13.7 77.65-15.55 77.65-17.28 77.65-19 76.72-19.63 75.8-20.25 74.7-20.25L74.7-20.25Q72.35-20.25 70.57-17.63 68.8-15 68.8-11.38 68.8-7.75 70.52-5.98 72.25-4.2 74.8-4.2L74.8-4.2Q78.55-4.2 82-6.8 85.45-9.4 87.6-13.6L87.6-13.6Q88.7-12.55 89.6-11L89.6-11Q87.95-7.25 83.75-3.65L83.75-3.65Q81.65-1.9 78.77-0.8 75.9 0.3 72.85 0.3L72.85 0.3Q67.85 0.3 64.95-2.75L64.95-2.75Q61.85-6.05 61.85-11.2 61.85-16.35 65.72-20.2 69.6-24.05 75-24.05L75-24.05Q78.85-24.05 81.25-22.38 83.65-20.7 83.7-17.85L83.7-17.85Q83.7-14 80.62-11.6 77.55-9.2 72.2-8.25L72.2-8.25 71.5-11.2ZM99.74-5.6L99.74-5.6 100.94-16.75Q100.94-18.1 100.24-19 99.54-19.9 97.92-19.9 96.29-19.9 95.17-18.48 94.04-17.05 93.74-14.9L93.74-14.9Q91.94-1.2 91.84 0L91.84 0 85.09 0 87.84-23.55Q89.94-24.1 91.04-24.1L91.04-24.1Q94.39-24.1 94.54-21.65L94.54-21.65Q96.99-24.05 100.42-24.05 103.84-24.05 105.79-22.35 107.74-20.65 107.74-18.05L107.74-18.05Q107.74-17.35 107.44-15.4L107.44-15.4Q106.29-7.8 106.29-6.55L106.29-6.55Q106.29-4.25 107.84-4.25L107.84-4.25Q111.24-4.25 112.99-11.35L112.99-11.35Q114.69-9.55 115.04-8.5L115.04-8.5Q112.39 0.3 105.84 0.3L105.84 0.3Q102.74 0.3 101.24-1.6 99.74-3.5 99.74-5.6Z" fill="#030303" data-fill-palette-color="primary"></path></g></svg></g></svg></g></svg></g></svg></g><g><svg viewBox="0 0 244.43135999999998 167.4994664493583" height="167.4994664493583" width="244.43135999999998"><g><svg xmlns:dc="http://purl.org/dc/elements/1.1/" xmlns:sodipodi="http://sodipodi.sourceforge.net/DTD/sodipodi-0.dtd" xmlns:cc="http://creativecommons.org/ns#" xmlns:svg="http://www.w3.org/2000/svg" xmlns:rdf="http://www.w3.org/1999/02/22-rdf-syntax-ns#" xmlns:inkscape="http://www.inkscape.org/namespaces/inkscape" xmlns="http://www.w3.org/2000/svg" xmlns:xlink="http://www.w3.org/1999/xlink" version="1.1" x="0" y="0" viewBox="0.37596662281929105 0.387 45.000321541913046 30.837" enable-background="new 0 0 46.813 32.079" xml:space="preserve" height="167.4994664493583" width="244.43135999999998" class="icon-icon-0" data-fill-palette-color="accent" id="icon-0"><g fill="#030303" data-fill-palette-color="accent"><rect x="5.159" y="6.815" fill="none" width="1.442" height="1.502"></rect><rect x="3.237" y="6.815" fill="none" width="1.442" height="1.502"></rect><rect x="5.159" y="12.583" fill="none" width="1.442" height="1.442"></rect><rect x="3.237" y="12.583" fill="none" width="1.442" height="1.442"></rect><rect x="3.237" y="10.661" fill="none" width="1.442" height="1.442"></rect><rect x="7.082" y="12.583" fill="none" width="1.442" height="1.442"></rect><rect x="10.927" y="12.583" fill="none" width="1.383" height="1.442"></rect><rect x="9.005" y="6.815" fill="none" width="1.442" height="1.502"></rect><rect x="9.005" y="12.583" fill="none" width="1.442" height="1.442"></rect><rect x="7.082" y="6.815" fill="none" width="1.442" height="1.502"></rect><rect x="7.082" y="8.798" fill="none" width="1.442" height="1.382"></rect><rect x="9.005" y="10.661" fill="none" width="1.442" height="1.442"></rect><rect x="10.927" y="10.661" fill="none" width="1.383" height="1.442"></rect><rect x="10.927" y="6.815" fill="none" width="1.383" height="1.502"></rect><rect x="5.159" y="8.798" fill="none" width="1.442" height="1.382"></rect><rect x="12.791" y="10.661" fill="none" width="1.501" height="1.442"></rect><rect x="10.927" y="8.798" fill="none" width="1.383" height="1.382"></rect><rect x="9.005" y="8.798" fill="none" width="1.442" height="1.382"></rect><rect x="5.159" y="10.661" fill="none" width="1.442" height="1.442"></rect><rect x="12.791" y="8.798" fill="none" width="1.501" height="1.382"></rect><rect x="7.082" y="10.661" fill="none" width="1.442" height="1.442"></rect><rect x="14.772" y="12.583" fill="none" width="1.446" height="1.442"></rect><path fill="none" d="M2.695 24.096h-0.24c0 0-0.661 0.33-0.781 0.767-0.121 0.436 0.24 0.344 0.781 0.06C2.996 24.637 3.296 24.096 2.695 24.096z"></path><circle fill="none" cx="36.231" cy="28.009" r="1.8"></circle><path fill="none" d="M23.664 22.834c0 0-1.021 0-1.322 0-0.3 0-0.793 0.541 0.535 0.48C24.204 23.255 24.144 22.834 23.664 22.834z"></path><circle fill="none" cx="9.435" cy="27.889" r="1.8"></circle><path fill="none" d="M29.912 17.248c-0.541 0-3.425 0-3.425 0s-0.36 3.604-0.36 3.845 6.429 0 6.429 0 0.18-2.103-0.36-2.884C31.654 17.428 30.453 17.248 29.912 17.248z"></path><path fill="none" d="M43.969 20.912c0 0-0.901 1.683-0.721 2.283s1.112 0.391 1.143 0C44.421 22.804 44.421 20.912 43.969 20.912z"></path><rect x="12.791" y="12.583" fill="none" width="1.501" height="1.442"></rect><path fill="none" d="M20.479 17.788c-1.321 0.361-3.425 2.104-3.425 2.104v1.562c0 0 7.27 0 7.21-0.24-0.061-0.24 0.66-3.965 0.66-3.965C24.264 17.248 21.8 17.426 20.479 17.788z"></path><path fill="none" d="M2.035 15.111h15.38V5.314H2.035V15.111zM2.756 6.335h13.942v8.171H2.756V6.335z"></path><rect x="14.772" y="8.798" fill="none" width="1.446" height="1.382"></rect><rect x="14.772" y="6.815" fill="none" width="1.446" height="1.502"></rect><rect x="3.237" y="8.798" fill="none" width="1.442" height="1.382"></rect><rect x="14.772" y="10.661" fill="none" width="1.446" height="1.442"></rect><rect x="12.791" y="6.815" fill="none" width="1.501" height="1.502"></rect><path d="M36.224 24.863c-1.757 0-3.182 1.422-3.182 3.18 0 1.759 1.423 3.181 3.182 3.181 1.758 0 3.18-1.422 3.18-3.181C39.404 26.285 37.98 24.863 36.224 24.863zM36.231 29.776c-0.976 0-1.767-0.791-1.767-1.767 0-0.977 0.791-1.767 1.767-1.767 0.977 0 1.767 0.79 1.767 1.767C37.998 28.985 37.205 29.776 36.231 29.776z" fill="#030303" data-fill-palette-color="accent"></path><path d="M9.428 24.742c-1.756 0-3.182 1.423-3.182 3.181 0 1.759 1.424 3.181 3.182 3.181s3.181-1.422 3.181-3.181C12.609 26.165 11.184 24.742 9.428 24.742zM9.435 29.656c-0.975 0-1.767-0.791-1.767-1.767 0-0.977 0.792-1.767 1.767-1.767 0.976 0 1.767 0.79 1.767 1.767C11.202 28.865 10.41 29.656 9.435 29.656z" fill="#030303" data-fill-palette-color="accent"></path><path d="M45.293 24.457c-0.211-0.21-0.481-0.48-0.481-0.78 0-0.299 0-3.004-0.48-3.423-0.48-0.422-3.845 0-5.047-0.302-1.201-0.302-4.746-2.712-6.49-3.351-3.752-1.372-11.834-0.195-13.516 0.165-1.683 0.36-7.578 4.191-8.472 4.326-5.586 0.841-9.072 2.463-9.313 3.004-0.24 0.542-0.421 0.841-0.902 1.021-0.481 0.181 0 1.321-0.059 1.683-0.06 0.36 0.42 0 0.42 0.3 0 0.301 0 1.202 0 1.202h4.626c0 0 0.3-3.966 3.725-3.966 3.785 0 3.904 3.905 3.904 3.905v0.721h19.226v-0.9c0 0 0.421-3.546 3.936-3.577 3.515-0.028 3.575 3.577 3.755 3.577s4.445-0.662 4.807-1.082S45.502 24.667 45.293 24.457zM2.455 24.922c-0.541 0.284-0.902 0.376-0.781-0.06 0.12-0.437 0.781-0.767 0.781-0.767h0.24C3.296 24.096 2.996 24.637 2.455 24.922zM22.877 23.315c-1.329 0.061-0.835-0.48-0.535-0.48 0.301 0 1.322 0 1.322 0C24.144 22.834 24.204 23.255 22.877 23.315zM24.264 21.212c0.06 0.24-7.21 0.24-7.21 0.24v-1.562c0 0 2.104-1.742 3.425-2.104s3.785-0.54 4.445-0.54C24.925 17.248 24.204 20.972 24.264 21.212zM32.555 21.092c0 0-6.429 0.24-6.429 0s0.36-3.845 0.36-3.845 2.884 0 3.425 0 1.742 0.181 2.283 0.961C32.735 18.99 32.555 21.092 32.555 21.092zM44.391 23.195c-0.03 0.391-0.962 0.601-1.143 0s0.721-2.283 0.721-2.283C44.421 20.912 44.421 22.804 44.391 23.195z" fill="#030303" data-fill-palette-color="accent"></path><path d="M16.698 6.335H2.756v8.171h13.942V6.335zM16.458 8.798h-0.24v1.382h0.237v0.48h-0.237v1.442h0.237v0.481h-0.237v1.442h-1.446v0.24h-0.48v-0.24h-1.501v0.24H12.31v-0.24h-1.383v0.24h-0.48v-0.24H9.005v0.24h-0.48v-0.24H7.082v0.24H6.601v-0.24H5.159v0.24h-0.48v-0.24H3.237v-1.442H2.996v-0.481h0.241v-1.442H2.996v-0.48h0.241V8.798H2.996v-0.48h0.241V6.815h1.442v-0.24h0.48v0.24h1.442v-0.24h0.481v0.24h1.442v-0.24h0.48v0.24h1.442v-0.24h0.48v0.24h1.383v-0.24h0.481v0.24h1.501v-0.24h0.48v0.24h1.446v1.502h0.24V8.798z" fill="#030303" data-fill-palette-color="accent"></path><polygon points="4.679,12.583 4.679,14.025 4.679,14.266 5.159,14.266 5.159,14.025 5.159,12.583  " fill="#030303" data-fill-palette-color="accent"></polygon><rect x="4.679" y="10.661" width="0.48" height="1.442" fill="#030303" data-fill-palette-color="accent"></rect><polygon points="5.159,8.317 5.159,6.815 5.159,6.575 4.679,6.575 4.679,6.815 4.679,8.317  " fill="#030303" data-fill-palette-color="accent"></polygon><rect x="4.679" y="8.798" width="0.48" height="1.382" fill="#030303" data-fill-palette-color="accent"></rect><rect x="6.601" y="10.661" width="0.481" height="1.442" fill="#030303" data-fill-palette-color="accent"></rect><polygon points="6.601,12.583 6.601,14.025 6.601,14.266 7.082,14.266 7.082,14.025 7.082,12.583  " fill="#030303" data-fill-palette-color="accent"></polygon><polygon points="7.082,8.317 7.082,6.815 7.082,6.575 6.601,6.575 6.601,6.815 6.601,8.317  " fill="#030303" data-fill-palette-color="accent"></polygon><rect x="6.601" y="8.798" width="0.481" height="1.382" fill="#030303" data-fill-palette-color="accent"></rect><polygon points="9.005,8.317 9.005,6.815 9.005,6.575 8.524,6.575 8.524,6.815 8.524,8.317  " fill="#030303" data-fill-palette-color="accent"></polygon><polygon points="8.524,12.583 8.524,14.025 8.524,14.266 9.005,14.266 9.005,14.025 9.005,12.583  " fill="#030303" data-fill-palette-color="accent"></polygon><rect x="8.524" y="10.661" width="0.48" height="1.442" fill="#030303" data-fill-palette-color="accent"></rect><rect x="8.524" y="8.798" width="0.48" height="1.382" fill="#030303" data-fill-palette-color="accent"></rect><rect x="10.447" y="10.661" width="0.48" height="1.442" fill="#030303" data-fill-palette-color="accent"></rect><rect x="10.447" y="8.798" width="0.48" height="1.382" fill="#030303" data-fill-palette-color="accent"></rect><polygon points="10.447,12.583 10.447,14.025 10.447,14.266 10.927,14.266 10.927,14.025 10.927,12.583  " fill="#030303" data-fill-palette-color="accent"></polygon><polygon points="10.927,8.317 10.927,6.815 10.927,6.575 10.447,6.575 10.447,6.815 10.447,8.317  " fill="#030303" data-fill-palette-color="accent"></polygon><rect x="12.31" y="8.798" width="0.481" height="1.382" fill="#030303" data-fill-palette-color="accent"></rect><polygon points="12.791,8.317 12.791,6.815 12.791,6.575 12.31,6.575 12.31,6.815 12.31,8.317  " fill="#030303" data-fill-palette-color="accent"></polygon><polygon points="12.31,12.583 12.31,14.025 12.31,14.266 12.791,14.266 12.791,14.025 12.791,12.583  " fill="#030303" data-fill-palette-color="accent"></polygon><rect x="12.31" y="10.661" width="0.481" height="1.442" fill="#030303" data-fill-palette-color="accent"></rect><polygon points="14.772,8.317 14.772,6.815 14.772,6.575 14.292,6.575 14.292,6.815 14.292,8.317  " fill="#030303" data-fill-palette-color="accent"></polygon><rect x="14.292" y="10.661" width="0.48" height="1.442" fill="#030303" data-fill-palette-color="accent"></rect><rect x="14.292" y="8.798" width="0.48" height="1.382" fill="#030303" data-fill-palette-color="accent"></rect><polygon points="14.292,12.583 14.292,14.025 14.292,14.266 14.772,14.266 14.772,14.025 14.772,12.583  " fill="#030303" data-fill-palette-color="accent"></polygon><polygon points="14.772,8.317 14.292,8.317 12.791,8.317 12.31,8.317 10.927,8.317 10.447,8.317 9.005,8.317 8.524,8.317    7.082,8.317 6.601,8.317 5.159,8.317 4.679,8.317 3.237,8.317 2.996,8.317 2.996,8.798 3.237,8.798 4.679,8.798 5.159,8.798    6.601,8.798 7.082,8.798 8.524,8.798 9.005,8.798 10.447,8.798 10.927,8.798 12.31,8.798 12.791,8.798 14.292,8.798 14.772,8.798    16.218,8.798 16.458,8.798 16.458,8.317 16.218,8.317  " fill="#030303" data-fill-palette-color="accent"></polygon><polygon points="14.292,10.18 12.791,10.18 12.31,10.18 10.927,10.18 10.447,10.18 9.005,10.18 8.524,10.18 7.082,10.18    6.601,10.18 5.159,10.18 4.679,10.18 3.237,10.18 2.996,10.18 2.996,10.661 3.237,10.661 4.679,10.661 5.159,10.661 6.601,10.661    7.082,10.661 8.524,10.661 9.005,10.661 10.447,10.661 10.927,10.661 12.31,10.661 12.791,10.661 14.292,10.661 14.772,10.661    16.218,10.661 16.455,10.661 16.455,10.18 16.218,10.18 14.772,10.18  " fill="#030303" data-fill-palette-color="accent"></polygon><polygon points="14.292,12.103 12.791,12.103 12.31,12.103 10.927,12.103 10.447,12.103 9.005,12.103 8.524,12.103 7.082,12.103    6.601,12.103 5.159,12.103 4.679,12.103 3.237,12.103 2.996,12.103 2.996,12.583 3.237,12.583 4.679,12.583 5.159,12.583    6.601,12.583 7.082,12.583 8.524,12.583 9.005,12.583 10.447,12.583 10.927,12.583 12.31,12.583 12.791,12.583 14.292,12.583    14.772,12.583 16.218,12.583 16.455,12.583 16.455,12.103 16.218,12.103 14.772,12.103  " fill="#030303" data-fill-palette-color="accent"></polygon><path d="M18.077 1.648h-1.622v2.073h-1.923V1.648h-3.845v2.073H8.764V1.648H4.919v2.073H2.996V1.648H1.434v14.12h16.643V1.648zM17.416 15.111H2.035V5.314h15.38V15.111z" fill="#030303" data-fill-palette-color="accent"></path><rect x="3.476" y="0.387" width="0.961" height="2.884" fill="#030303" data-fill-palette-color="accent"></rect><rect x="15.012" y="0.387" width="0.961" height="2.884" fill="#030303" data-fill-palette-color="accent"></rect><rect x="9.304" y="0.387" width="0.961" height="2.884" fill="#030303" data-fill-palette-color="accent"></rect></g></svg></g></svg></g></svg></g><defs></defs></svg><rect width="395.52" height="92.61771005738615" fill="none" stroke="none" visibility="hidden"></rect></g></svg></g></svg>